# xmcd CD database file
#
# Track frame offsets:
#	150
#	31200
#	66552
#	88530
#	123322
#	153172
#	181892
#	208995
#	240570
#	276205
#
# Disc length: 4010 seconds
#
# Revision: 0
# Processed by: cddbd v1.4PL0 Copyright (c) Steve Scherf et al.
# Submitted via: CDex 1.50Beta5
#
DISCID=880fa80a
DTITLE=Mark Levine - One Notch Up
DYEAR=1997
DGENRE=Jazz
TTITLE0=I Didn't Know What Time It Was
TTITLE1=Up Jumped Spring
TTITLE2=If There Is Someone Lovelier Than You
TTITLE3=Ask Me Now
TTITLE4=Pensativa
TTITLE5=Low Key Lightly
TTITLE6=Linda Chicana
TTITLE7=One Notch Up
TTITLE8=You Know I Care
TTITLE9=After You
EXTD=YEAR: 1997
EXTT0=
EXTT1=
EXTT2=
EXTT3=
EXTT4=
EXTT5=
EXTT6=
EXTT7=
EXTT8=
EXTT9=
PLAYORDER=
